# xmcd CD database file generated by Grip 2.4
# 
# Track frame offsets:
#       150
#       21600
#       33075
#       44625
#       59700
#       72300
#       86100
#       101445
#       114437
#       138790
# 
# Disc length: 2045 seconds
# 
# Revision: 3
# Processed by: cddbd v1.4b41PL1 Copyright (c) Steve Scherf et al.
# Submitted via: Grip 2.4
# 
DISCID=8d07fb0a
DTITLE=Louis Armstrong - Hello Dolly
DYEAR=1900
DGENRE=
TTITLE0=Jeepers Creepers
TTITLE1=Hello Dolly
TTITLE2=Tiger Rag
TTITLE3=Blueberry Hill
TTITLE4=C'est Si Bon
TTITLE5=Ain't Misbehavin'
TTITLE6=Mack The Knife
TTITLE7=St-Louis Blues
TTITLE8=On The Sunny Side Of The Street
TTITLE9=When The Saints Go Marching In
EXTD=
EXTT0=
EXTT1=
EXTT2=
EXTT3=
EXTT4=
EXTT5=
EXTT6=
EXTT7=
EXTT8=
EXTT9=
PLAYORDER=
